<?xml version="1.0" standalone="no"?>
<!DOCTYPE svg PUBLIC "-//W3C//DTD SVG 20010904//EN"
 "http://www.w3.org/TR/2001/REC-SVG-20010904/DTD/svg10.dtd">
<svg version="1.0" xmlns="http://www.w3.org/2000/svg"
 width="640.000000pt" height="1280.000000pt" viewBox="0 0 640.000000 1280.000000"
 preserveAspectRatio="xMidYMid meet">
<metadata>
Created by potrace 1.15, written by Peter Selinger 2001-2017
</metadata>
<g transform="translate(0.000000,1280.000000) scale(0.100000,-0.100000)"
fill="#FFFFFF" stroke="none">
<path d="M2800 12794 c-724 -36 -1136 -105 -1308 -220 -59 -39 -109 -108 -117
-163 -3 -20 -21 -88 -41 -152 -112 -374 -129 -668 -51 -899 68 -199 180 -308
389 -379 l53 -18 5 -4750 5 -4750 59 -114 c294 -567 664 -1025 987 -1221 423
-257 846 -120 1294 419 182 219 389 537 528 811 l62 123 0 4735 0 4734 65 21
c110 36 216 96 265 152 58 63 108 168 137 282 32 127 31 402 -1 590 -25 153
-61 299 -99 409 -45 130 -120 193 -298 249 -165 52 -456 95 -824 123 -203 14
-934 26 -1110 18z m1407 -1941 c-9 -2 -15 -9 -12 -14 4 -5 6 -2115 6 -4690 0
-4229 1 -4680 15 -4663 25 30 -72 -150 -148 -276 -283 -468 -614 -790 -840
-816 -122 -14 -274 64 -445 229 -87 84 -195 209 -268 312 -27 37 -27 38 -5 18
l25 -22 -5 4947 -5 4947 -40 6 c-22 4 28 4 110 0 281 -12 1198 -4 1370 12 157
14 277 19 242 10z"/>
<path d="M3550 9889 l0 -49 320 0 320 0 0 51 0 50 -320 -2 -320 -2 0 -48z"/>
<path d="M3670 9443 l-125 -4 3 -44 4 -45 134 0 134 0 0 50 c0 34 -4 49 -12
48 -7 -1 -69 -4 -138 -5z"/>
<path d="M3818 8953 l-268 -3 0 -48 0 -47 320 0 320 -1 0 53 0 53 -52 -2 c-29
-2 -173 -4 -320 -5z"/>
<path d="M3549 8456 c-2 -3 -3 -26 -1 -52 l4 -47 67 7 c36 3 96 6 134 6 l67 0
0 45 0 45 -133 0 c-74 0 -136 -2 -138 -4z"/>
<path d="M3550 7920 l0 -50 320 0 320 0 0 50 0 50 -320 0 -320 0 0 -50z"/>
<path d="M3620 7473 l-75 -4 3 -44 4 -45 134 0 134 0 0 50 0 50 -62 -2 c-35
-1 -97 -4 -138 -5z"/>
<path d="M3723 6983 l-173 -3 0 -45 0 -45 304 0 c167 0 311 -3 320 -6 13 -5
16 3 16 50 l0 56 -147 -2 c-82 -1 -226 -4 -320 -5z"/>
<path d="M3550 6443 l0 -48 135 3 135 3 0 45 0 44 -135 0 -135 0 0 -47z"/>
<path d="M3858 6003 l-308 -3 0 -50 0 -50 320 0 320 0 0 55 c0 39 -4 54 -12
53 -7 -2 -151 -4 -320 -5z"/>
<path d="M3549 5506 c-2 -3 -3 -25 -1 -50 l4 -46 82 0 c44 0 105 3 134 6 l52
7 0 43 0 44 -133 0 c-74 0 -136 -2 -138 -4z"/>
<path d="M3550 4970 l0 -50 320 0 320 0 0 50 0 50 -320 0 -320 0 0 -50z"/>
<path d="M3655 4523 l-110 -4 3 -44 4 -45 134 0 134 0 0 50 c0 48 -1 50 -27
48 -16 -1 -78 -4 -138 -5z"/>
<path d="M3803 4033 l-253 -3 0 -48 0 -47 320 0 320 0 0 53 0 52 -67 -2 c-38
-2 -182 -4 -320 -5z"/>
<path d="M3550 3489 l0 -52 46 7 c26 3 87 6 135 6 l89 0 0 45 0 45 -135 0
-135 0 0 -51z"/>
<path d="M3868 3053 l-318 -3 0 -50 0 -50 320 0 320 0 0 55 c0 30 -1 54 -2 53
-2 -2 -146 -4 -320 -5z"/>
</g>
</svg>
